<svg xmlns="http://www.w3.org/2000/svg" xmlns:xlink="http://www.w3.org/1999/xlink" width="500" zoomAndPan="magnify" viewBox="0 0 375 374.999991" height="500" preserveAspectRatio="xMidYMid meet" version="1.0"><defs><g/><clipPath id="id1"><path d="M 166 89.253906 L 208 89.253906 L 208 117 L 166 117 Z M 166 89.253906 " clip-rule="nonzero"/></clipPath><clipPath id="id2"><path d="M 134.242188 140 L 240.742188 140 L 240.742188 208.503906 L 134.242188 208.503906 Z M 134.242188 140 " clip-rule="nonzero"/></clipPath></defs><path fill="#00afef" d="M 154.371094 146.601562 L 186.734375 135.835938 L 219.101562 146.601562 L 219.101562 137.964844 L 186.734375 123.796875 L 154.371094 137.964844 Z M 154.371094 146.601562 " fill-opacity="1" fill-rule="evenodd"/><g clip-path="url(#id1)"><path fill="#00afef" d="M 190.5625 99.257812 L 207.042969 111.160156 L 207.042969 115.8125 L 186.734375 104.3125 L 166.429688 116.433594 L 166.429688 111.785156 L 182.910156 99.257812 L 182.910156 89.265625 L 190.5625 89.265625 Z M 190.5625 99.257812 " fill-opacity="1" fill-rule="evenodd"/></g><path fill="#00afef" d="M 159.898438 131.183594 L 186.933594 119.636719 L 213.957031 131.558594 L 213.957031 124.339844 L 186.933594 109.585938 L 159.898438 123.964844 Z M 159.898438 131.183594 " fill-opacity="1" fill-rule="evenodd"/><g clip-path="url(#id2)"><path fill="#384f77" d="M 208.714844 198.863281 L 209.480469 197.363281 L 214.800781 186.933594 L 231.347656 154.492188 L 189.121094 140.445312 L 187.128906 193 L 187.101562 192.992188 L 187.058594 192.992188 L 187.042969 192.984375 L 186.933594 192.984375 L 186.914062 192.976562 L 186.90625 192.976562 L 186.882812 192.96875 L 186.804688 192.96875 L 186.777344 192.957031 L 186.769531 192.957031 L 186.257812 192.8125 L 184.273438 140.476562 L 142.046875 154.527344 L 152.503906 175.015625 L 158.597656 186.960938 C 158.792969 186.96875 158.988281 186.976562 159.183594 186.984375 C 158.988281 186.976562 158.792969 186.96875 158.597656 186.960938 L 164.085938 197.710938 L 164.699219 198.914062 C 146.65625 199.246094 134.164062 199.953125 134.164062 200.769531 C 134.164062 201.902344 158 202.824219 187.410156 202.824219 C 216.820312 202.824219 240.65625 201.902344 240.65625 200.769531 C 240.65625 199.925781 227.480469 199.203125 208.628906 198.886719 Z M 187.484375 208.488281 C 210.078125 208.488281 228.382812 207.714844 228.382812 206.761719 C 228.382812 205.804688 210.070312 205.03125 187.484375 205.03125 C 164.894531 205.03125 146.589844 205.804688 146.589844 206.761719 C 146.589844 207.714844 164.902344 208.488281 187.484375 208.488281 Z M 159.304688 186.960938 C 162.082031 187.089844 160.675781 187.019531 159.304688 186.960938 Z M 159.304688 186.960938 " fill-opacity="1" fill-rule="evenodd"/></g><g fill="#384f77" fill-opacity="1"><g transform="translate(145.99619, 255.928351)"><g><path d="M 7.214844 -29.75 C 3.753906 -29.75 1.859375 -27.890625 1.859375 -24.394531 L 1.859375 -15.617188 C 1.859375 -14.910156 2.195312 -14.464844 2.863281 -14.242188 L 11.675781 -11.339844 L 11.675781 -6.394531 C 11.675781 -5.390625 11.15625 -4.910156 10.1875 -4.910156 L 8.402344 -4.910156 C 7.472656 -4.910156 6.917969 -5.390625 6.917969 -6.394531 L 6.917969 -9.257812 C 6.917969 -9.667969 6.730469 -9.855469 6.320312 -9.855469 L 2.453125 -9.855469 C 2.082031 -9.855469 1.859375 -9.667969 1.859375 -9.257812 L 1.859375 -5.355469 C 1.859375 -1.859375 3.753906 0 7.214844 0 L 11.378906 0 C 14.875 0 16.734375 -1.859375 16.734375 -5.355469 L 16.734375 -13.945312 C 16.734375 -14.652344 16.398438 -15.058594 15.765625 -15.320312 L 6.917969 -18.222656 L 6.917969 -23.351562 C 6.917969 -24.320312 7.472656 -24.839844 8.402344 -24.839844 L 10.1875 -24.839844 C 11.191406 -24.839844 11.675781 -24.320312 11.675781 -23.351562 L 11.675781 -20.453125 C 11.675781 -20.078125 11.898438 -19.855469 12.269531 -19.855469 L 16.136719 -19.855469 C 16.546875 -19.855469 16.734375 -20.078125 16.734375 -20.453125 L 16.734375 -24.394531 C 16.734375 -27.890625 14.875 -29.75 11.378906 -29.75 Z M 7.214844 -29.75 "/></g></g></g><g fill="#384f77" fill-opacity="1"><g transform="translate(169.795243, 255.928351)"><g><path d="M 19.78125 0 C 20.230469 0 20.378906 -0.222656 20.304688 -0.632812 L 14.128906 -29.226562 C 14.054688 -29.597656 13.832031 -29.75 13.5 -29.75 L 8.328125 -29.75 C 7.996094 -29.75 7.773438 -29.597656 7.699219 -29.226562 L 1.523438 -0.632812 C 1.414062 -0.222656 1.597656 0 2.007812 0 L 5.988281 0 C 6.320312 0 6.507812 -0.1875 6.582031 -0.519531 L 7.585938 -5.949219 L 14.203125 -5.949219 L 15.246094 -0.519531 C 15.320312 -0.1875 15.507812 0 15.839844 0 Z M 13.273438 -10.261719 L 8.515625 -10.261719 L 10.894531 -23.242188 Z M 13.273438 -10.261719 "/></g></g></g><g fill="#384f77" fill-opacity="1"><g transform="translate(196.792231, 255.928351)"><g><path d="M 2.453125 -29.75 C 2.046875 -29.75 1.859375 -29.523438 1.859375 -29.152344 L 1.859375 -0.59375 C 1.859375 -0.222656 2.046875 0 2.453125 0 L 6.320312 0 C 6.691406 0 6.917969 -0.222656 6.917969 -0.59375 L 6.917969 -29.152344 C 6.917969 -29.523438 6.691406 -29.75 6.320312 -29.75 Z M 2.453125 -29.75 "/></g></g></g><g fill="#384f77" fill-opacity="1"><g transform="translate(210.774363, 255.928351)"><g><path d="M 6.917969 -4.910156 L 15.765625 -4.910156 C 16.175781 -4.910156 16.363281 -4.683594 16.363281 -4.3125 L 16.363281 -0.59375 C 16.363281 -0.1875 16.175781 0 15.765625 0 L 2.453125 0 C 2.082031 0 1.859375 -0.1875 1.859375 -0.59375 L 1.859375 -29.152344 C 1.859375 -29.523438 2.082031 -29.75 2.453125 -29.75 L 6.320312 -29.75 C 6.730469 -29.75 6.917969 -29.523438 6.917969 -29.152344 Z M 6.917969 -4.910156 "/></g></g></g><g fill="#00afef" fill-opacity="1"><g transform="translate(163.593428, 281.822619)"><g><path d="M 4.546875 -9.71875 C 5.765625 -9.71875 6.375 -9.066406 6.375 -7.765625 L 6.375 0 L 4.3125 0 L 4.3125 -3.21875 L 2.8125 -3.21875 L 2.8125 0 L 0.734375 0 L 0.734375 -7.765625 C 0.734375 -9.066406 1.347656 -9.71875 2.578125 -9.71875 Z M 2.8125 -4.8125 L 4.3125 -4.8125 L 4.3125 -8.015625 C 4.3125 -8.097656 4.28125 -8.164062 4.21875 -8.21875 C 4.164062 -8.28125 4.101562 -8.3125 4.03125 -8.3125 L 3.09375 -8.3125 C 3.007812 -8.3125 2.941406 -8.28125 2.890625 -8.21875 C 2.835938 -8.164062 2.8125 -8.097656 2.8125 -8.015625 Z M 2.8125 -4.8125 "/></g></g></g><g fill="#00afef" fill-opacity="1"><g transform="translate(176.288094, 281.822619)"><g><path d="M 4.28125 -9.578125 L 6.109375 -9.578125 L 7.21875 -2.375 L 8.046875 -9.578125 L 10.0625 -9.578125 L 8.515625 0 L 6.15625 0 L 5.1875 -5.875 L 4.234375 0 L 1.875 0 L 0.328125 -9.578125 L 2.34375 -9.578125 L 3.171875 -2.375 Z M 4.28125 -9.578125 "/></g></g></g><g fill="#00afef" fill-opacity="1"><g transform="translate(192.26592, 281.822619)"><g><path d="M 4.546875 -9.71875 C 5.765625 -9.71875 6.375 -9.066406 6.375 -7.765625 L 6.375 0 L 4.3125 0 L 4.3125 -3.21875 L 2.8125 -3.21875 L 2.8125 0 L 0.734375 0 L 0.734375 -7.765625 C 0.734375 -9.066406 1.347656 -9.71875 2.578125 -9.71875 Z M 2.8125 -4.8125 L 4.3125 -4.8125 L 4.3125 -8.015625 C 4.3125 -8.097656 4.28125 -8.164062 4.21875 -8.21875 C 4.164062 -8.28125 4.101562 -8.3125 4.03125 -8.3125 L 3.09375 -8.3125 C 3.007812 -8.3125 2.941406 -8.28125 2.890625 -8.21875 C 2.835938 -8.164062 2.8125 -8.097656 2.8125 -8.015625 Z M 2.8125 -4.8125 "/></g></g></g><g fill="#00afef" fill-opacity="1"><g transform="translate(204.960584, 281.822619)"><g><path d="M 6.28125 -9.578125 L 4.234375 -3.484375 L 4.234375 0 L 2.15625 0 L 2.15625 -3.484375 L 0.109375 -9.578125 L 2.0625 -9.578125 L 3.203125 -5.578125 L 4.328125 -9.578125 Z M 6.28125 -9.578125 "/></g></g></g></svg>